PathFileType	4	(X/Y/Z)	C:\Users\Basilio\Documents\Thesis Gigler\squatting_fais\c3dfiles\047\SJ_pre1\markers_experimental.trc
DataRate	CameraRate	NumFrames	NumMarkers	Units	OrigDataRate	OrigDataStartFrame	OrigNumFrames
200.000000	200.000000	4	61	mm	200.000000	0	1653
Frame#	Time	FHD			LBHD			RBHD			C7			T10			CLAV			LSHO			LUUPA			LMUPA			LDUPA			LLEP			LMEP			LRAD			LUL			LRFIN			RSHO			RUPA1			RMUPA			RDUPA			RLEP			RMEP			RRAD			RUL			RUFIN			LASI			RASI			USACR			LSACR			RSACR			LTHI1			LTHI2			LTHI3			LTHI4			LLFC			LMFC			LTIB1			LTIB2			LTIB3			LTIB4			LLMAL			LMMAL			LMT1			LMT2			LMT5			RTHI			RTHI2			RTHI3			RTHI4			RLFC			RMFC			RTIB1			RTIB2			RTIB3			RTIB4			RLMAL			RMMAL			RHEE			RMT1			RMT2			RMT5			*60			
		X1	Y1	Z1	X2	Y2	Z2	X3	Y3	Z3	X4	Y4	Z4	X5	Y5	Z5	X6	Y6	Z6	X7	Y7	Z7	X8	Y8	Z8	X9	Y9	Z9	X10	Y10	Z10	X11	Y11	Z11	X12	Y12	Z12	X13	Y13	Z13	X14	Y14	Z14	X15	Y15	Z15	X16	Y16	Z16	X17	Y17	Z17	X18	Y18	Z18	X19	Y19	Z19	X20	Y20	Z20	X21	Y21	Z21	X22	Y22	Z22	X23	Y23	Z23	X24	Y24	Z24	X25	Y25	Z25	X26	Y26	Z26	X27	Y27	Z27	X28	Y28	Z28	X29	Y29	Z29	X30	Y30	Z30	X31	Y31	Z31	X32	Y32	Z32	X33	Y33	Z33	X34	Y34	Z34	X35	Y35	Z35	X36	Y36	Z36	X37	Y37	Z37	X38	Y38	Z38	X39	Y39	Z39	X40	Y40	Z40	X41	Y41	Z41	X42	Y42	Z42	X43	Y43	Z43	X44	Y44	Z44	X45	Y45	Z45	X46	Y46	Z46	X47	Y47	Z47	X48	Y48	Z48	X49	Y49	Z49	X50	Y50	Z50	X51	Y51	Z51	X52	Y52	Z52	X53	Y53	Z53	X54	Y54	Z54	X55	Y55	Z55	X56	Y56	Z56	X57	Y57	Z57	X58	Y58	Z58	X59	Y59	Z59	X60	Y60	Z60	X61	Y61	Z61	

1	0	-11.34208869934082	1506.159301757813	-871.0957031250002	-117.698959350586	1609.27099609375	-978.7255859375002	-150.2663726806641	1642.851806640625	-838.4550781250002	-315.0011901855469	1506.711547851563	-904.697448730469	-429.563690185547	1187.37158203125	-886.3388671875002	-202.3697509765626	1387.476806640625	-902.2473144531252	-248.1271972656251	1434.10498046875	-1078.417358398438	-384.3934326171876	1346.469482421875	-1198.26708984375	-353.1203002929688	1311.116455078125	-1219.215087890625	-408.5699157714845	1295.400512695313	-1239.670776367188	-414.5013122558595	1229.858642578125	-1273.708984375	-474.417449951172	1214.093872070313	-1197.174438476563	-333.1149902343751	1067.887817382813	-1096.707275390625	-307.9217529296876	1022.990600585938	-1155.755493164063	-272.7487792968751	1050.849365234375	-1064.059326171875	-254.5977478027344	1453.6689453125	-741.0524291992189	-381.8200683593751	1365.037719726563	-595.1716918945314	-351.8537597656251	1329.010131835938	-578.0513305664064	-403.4839782714845	1314.191284179688	-551.1048583984376	-404.5870971679689	1245.628173828125	-518.9743652343751	-471.357879638672	1225.153442382813	-579.8375854492189	-322.7400512695313	1074.87060546875	-691.1434326171876	-294.5978088378907	1040.19482421875	-631.3376464843751	-262.6156921386719	1056.463134765625	-720.3980102539064	-261.0509643554688	945.5911865234377	-1005.076416015625	-261.1226196289063	950.4266357421877	-771.3497314453127	-437.8777465820314	1041.45751953125	-892.5987548828127	-444.6956481933595	1011.382507324219	-921.3719482421877	-441.8150634765626	1010.784423828125	-863.171569824219	-367.3257751464844	814.1455078125002	-1091.015380859375	-337.0302124023438	737.2152099609376	-1108.895385742188	-287.6263427734376	736.7100830078126	-1100.156372070313	-367.1165466308594	683.8208007812501	-1109.797729492188	-391.5860900878907	509.6377868652345	-1100.379028320313	-332.8113708496094	479.8364562988282	-995.8372192382815	-340.1330871582032	314.9296569824219	-1061.396118164063	-374.7886962890626	281.2173767089844	-1136.482543945313	-341.9175415039063	274.0989379882813	-1102.990844726563	-351.0778808593751	190.1590270996094	-1086.508911132813	-410.032196044922	96.28977203369143	-1141.249755859375	-366.8201293945313	103.296989440918	-1060.3623046875	-247.4902496337891	63.36194229125978	-1115.9033203125	-258.0384826660157	63.84629440307619	-1159.820190429688	-306.6720886230469	43.31480789184571	-1196.32177734375	-381.8133239746094	787.7807617187502	-685.4567260742189	-350.8584594726563	730.4869995117189	-669.3807983398439	-317.6722717285157	728.7825927734376	-672.6193237304689	-382.6427917480469	652.3748779296876	-678.1941528320314	-388.0166931152345	501.3653869628907	-685.3583374023439	-341.5288696289063	482.5990600585939	-798.6321411132815	-349.6898498535157	375.3106079101563	-685.4822998046876	-415.1993713378907	293.5315246582032	-658.3685302734376	-368.4034729003907	294.9660034179688	-659.8787231445314	-350.2468872070313	245.0132751464844	-687.9528808593751	-408.4854125976564	89.8637161254883	-662.2520141601564	-364.6930847167969	106.5750579833985	-744.5439453125001	-448.6385192871095	50.47596740722658	-725.0405883789064	-239.1886749267579	54.27893829345705	-697.2839965820314	-245.8479766845704	59.37415313720705	-652.4877929687501	-301.5870666503907	31.5449390411377	-605.3154907226564	nan	nan	nan	
2	0.005	-11.45021057128906	1506.8994140625	-870.4660644531252	-118.073715209961	1609.420043945313	-978.9451904296877	-151.0930633544922	1643.326049804688	-838.7596435546877	-315.2375488281251	1506.674194335938	-904.8286743164065	-429.5853576660157	1187.248657226563	-886.3406372070315	-202.4813690185547	1387.505004882813	-902.241882324219	-248.2442932128907	1434.01708984375	-1078.412719726563	-384.3754882812501	1346.235595703125	-1198.242919921875	-353.0214233398438	1310.800415039063	-1219.20703125	-408.1452941894532	1295.384033203125	-1239.735961914063	-414.1575317382814	1229.530883789063	-1273.647827148438	-474.2655334472657	1213.7744140625	-1197.152099609375	-332.8027954101563	1067.599731445313	-1096.59814453125	-307.6726074218751	1022.808166503906	-1155.604370117188	-273.2470703125001	1051.009765625	-1063.771240234375	-254.8236541748047	1453.855712890625	-741.0891723632814	-381.7092285156251	1365.232177734375	-595.1233520507814	-351.8129577636719	1329.237915039063	-577.9744873046876	-403.3480529785157	1314.345825195313	-551.0341186523439	-404.4956665039064	1245.777465820313	-518.8214721679689	-471.2685852050782	1225.280639648438	-579.6502075195314	-322.6466674804688	1075.0087890625	-690.9898071289064	-294.4650573730469	1040.35595703125	-631.1497802734376	-262.6323242187501	1056.69189453125	-720.2368164062501	-260.6746826171876	945.684020996094	-1004.796081542969	-260.9855957031251	950.4981689453127	-771.0971679687502	-437.6477661132814	1041.334838867188	-892.6099853515627	-444.4385070800782	1011.280090332031	-921.3692626953127	-441.5416259765626	1010.644470214844	-863.1641235351565	-366.8905944824219	814.111999511719	-1090.863159179688	-336.5760498046876	737.0921630859376	-1108.662353515625	-287.2943420410157	736.5925903320314	-1099.9189453125	-366.6952514648438	683.7657470703126	-1109.594360351563	-391.3886108398439	509.5841064453126	-1100.202514648438	-332.9384765625001	479.7656250000001	-995.4690551757815	-340.0038452148438	314.9566345214844	-1061.083618164063	-374.5210876464844	281.2253723144532	-1136.274047851563	-341.7412109375001	274.0602111816407	-1102.726684570313	-350.9790649414063	190.122543334961	-1086.269897460938	-409.9447631835939	96.31366729736331	-1141.026611328125	-366.7766113281251	103.1803436279297	-1060.119873046875	-247.3398590087891	63.35371780395509	-1115.886474609375	-257.9384155273438	63.8260841369629	-1159.809936523438	-306.5709838867188	43.34747314453126	-1196.266845703125	-381.7584838867188	787.814636230469	-685.5538940429689	-350.9027709960938	730.5249023437501	-669.2786254882814	-317.6775512695313	728.7993164062501	-672.4850463867189	-382.6593933105469	652.4082031250001	-678.0988159179689	-387.9700012207032	501.3630981445314	-685.2944946289064	-341.1532287597657	482.6405334472657	-798.4644775390627	-349.6748046875001	375.3097229003907	-685.4042968750001	-415.2498168945314	293.5257568359376	-658.3889770507814	-368.5540161132813	294.9061889648438	-659.7376098632814	-350.2301025390626	245.0306243896485	-687.8265991210939	-408.5097045898439	89.83302307128908	-662.1582031250001	-364.7362670898438	106.5394287109375	-744.5245971679689	-448.6363220214845	50.4929656982422	-725.0833740234376	-239.2041625976563	54.34455871582033	-697.2511596679689	-245.8909759521485	59.37358474731447	-652.3807983398439	-301.6557312011719	31.47465705871583	-605.2421264648439	nan	nan	nan	
3	0.01	-12.08314037322998	1507.843994140625	-869.8590087890627	-118.4567337036133	1609.495727539063	-979.1693115234377	-152.2107086181641	1643.754150390625	-839.1228027343752	-315.5329895019532	1506.6591796875	-904.8397216796877	-429.5310363769532	1187.16748046875	-886.3348388671877	-202.5460662841797	1387.592651367188	-902.2572021484377	-248.4212036132813	1433.889038085938	-1078.394287109375	-384.2749938964845	1345.946411132813	-1198.28466796875	-352.8184509277344	1310.488525390625	-1219.173461914063	-407.9602661132814	1295.038696289063	-1239.74365234375	-413.9066162109376	1229.171752929688	-1273.623413085938	-474.117401123047	1213.396850585938	-1197.188842773438	-332.5599365234376	1067.4150390625	-1096.463012695313	-307.2161560058594	1022.548767089844	-1155.384399414063	-272.9514465332032	1050.856811523438	-1063.655029296875	-254.9883422851563	1454.075439453125	-741.1610107421876	-381.6827392578126	1365.337036132813	-595.0992431640626	-351.8164062500001	1329.384643554688	-577.9098510742189	-403.2236633300782	1314.487548828125	-550.9416503906251	-404.3854064941407	1246.015991210938	-518.7101440429689	-471.1681518554689	1225.360717773438	-579.4602661132814	-322.5652160644532	1075.115356445313	-690.9039306640626	-294.3676147460938	1040.521606445313	-630.9509277343751	-262.4083251953126	1056.867431640625	-720.2204589843751	-260.2733154296876	945.7178344726565	-1004.552917480469	-260.8299560546876	950.597839355469	-770.8991699218752	-437.4073486328126	1041.228759765625	-892.6080322265627	-444.262420654297	1011.165466308594	-921.377136230469	-441.191131591797	1010.449768066406	-863.2312011718752	-366.5064086914063	814.0537109375002	-1090.66552734375	-336.1418457031251	737.0449218750001	-1108.447631835938	-286.9039306640626	736.4916992187501	-1099.678100585938	-366.3614196777344	683.7212524414064	-1109.41943359375	-391.3286437988282	509.5764770507814	-1099.961059570313	-333.2182617187501	479.6508178710939	-995.009460449219	-339.9920043945313	314.8970336914063	-1060.68603515625	-374.2125244140626	281.8239746093751	-1135.969848632813	-341.6773071289063	273.9541625976563	-1102.4169921875	-350.8654479980469	190.1116180419922	-1086.047241210938	-409.8678283691407	96.376335144043	-1140.84912109375	-366.6922607421876	103.0611267089844	-1059.827514648438	-247.2652740478516	63.26192092895509	-1115.860473632813	-257.8230895996094	63.83838653564455	-1159.808227539063	-306.5213012695313	43.39082717895509	-1196.243408203125	-381.6864318847657	787.824645996094	-685.6000976562501	-350.9555969238282	730.5319213867189	-669.1265869140626	-317.6902160644532	728.8665161132814	-672.3188476562501	-382.5975952148438	652.4159545898439	-678.0893554687501	-387.9370727539064	501.3846435546876	-685.2424316406251	-340.7345886230469	482.6210937500001	-798.4119262695315	-349.6623535156251	375.3008117675782	-685.3051147460939	-415.3051757812501	293.5275573730469	-658.3373413085939	-368.5798339843751	294.9016418457032	-659.6706542968751	-350.1971435546876	245.0481109619141	-687.7473144531251	-408.548065185547	89.81963348388673	-662.1956787109376	-364.6954650878907	106.5766754150391	-744.4475097656251	-448.6399536132814	50.47279357910158	-725.0762939453126	-239.2002258300782	54.35241317749025	-697.2247924804689	-245.8857727050782	59.31346511840822	-652.3486938476564	-301.6395568847657	31.43984603881837	-605.2085571289064	nan	nan	nan	
4	0.015	-12.30331039428711	1508.904174804688	-869.3666992187502	-118.7478790283203	1609.595336914063	-979.395446777344	-153.2119445800782	1644.196411132813	-839.5869750976565	-315.7525024414063	1506.566162109375	-904.9685668945315	-429.5854492187501	1187.093017578125	-886.2993164062502	-202.621566772461	1387.6826171875	-902.2196044921877	-248.5575714111329	1433.806518554688	-1078.408447265625	-384.2326660156251	1345.681030273438	-1198.307861328125	-352.7058715820313	1310.223999023438	-1219.13427734375	-407.8260803222657	1294.749145507813	-1239.75830078125	-413.6804504394532	1228.853271484375	-1273.614379882813	-473.9227905273439	1213.0107421875	-1197.291870117188	-332.1849670410157	1067.169067382813	-1096.401733398438	-306.9385375976563	1022.216979980469	-1155.173461914063	-272.5145874023438	1050.697509765625	-1063.520141601563	-255.1084289550782	1454.305786132813	-741.2821044921876	-381.6908264160157	1365.439331054688	-594.9852294921876	-351.7323913574219	1329.5888671875	-577.8970947265626	-403.1473999023439	1314.62548828125	-550.8317260742189	-404.2867736816407	1246.1630859375	-518.5130615234376	-471.0355529785157	1225.452026367188	-579.2442626953126	-322.5043334960938	1075.226318359375	-690.7938842773439	-294.2408752441407	1040.767211914063	-630.7932128906251	-262.3069152832032	1057.063598632813	-720.1186523437501	-259.8247375488282	945.8489379882815	-1004.398620605469	-260.5600891113282	950.9114990234377	-770.7888183593752	-437.1830444335939	1041.08935546875	-892.6196289062502	-443.9249877929689	1011.003845214844	-921.4136962890627	-441.0795898437501	1010.353576660156	-863.1943359375002	-366.0522766113282	813.9429321289065	-1090.53369140625	-335.7780761718751	736.9226074218751	-1108.226440429688	-286.6720886230469	736.3594970703126	-1099.454467773438	-366.0088195800782	683.6442871093751	-1109.248291015625	-391.115936279297	509.5113220214845	-1099.736206054688	-333.2241516113282	479.565643310547	-994.6679687500002	-340.0573120117188	314.7543640136719	-1060.20751953125	-372.5620727539063	282.0585327148438	-1136.973388671875	-341.5523071289063	273.9272155761719	-1102.107421875	-350.8448791503907	189.9127655029297	-1085.762329101563	-409.7906188964845	96.42671203613284	-1140.571044921875	-366.5790405273438	102.9008331298828	-1059.543823242188	-247.0917053222657	63.27695846557619	-1115.865966796875	-257.7906494140626	63.83497238159181	-1159.756713867188	-306.4461669921876	43.43714141845704	-1196.209350585938	-381.6451721191407	787.8110351562502	-685.6459350585939	-350.9014282226563	730.5756225585939	-669.0625610351564	-317.7167053222657	728.9398803710939	-672.1638793945314	-382.5921630859376	652.4266967773439	-678.0863647460939	-387.9092712402345	501.3826293945314	-685.2243652343751	-340.4931335449219	482.553192138672	-798.2326660156252	-349.6328430175782	375.2886962890626	-685.2317504882814	-415.3027954101564	293.5101928710938	-658.3304443359376	-368.5800170898438	294.8856201171876	-659.6369018554689	-350.2347106933594	245.0039672851563	-687.7529907226564	-408.5691833496095	89.83901214599611	-662.1921997070314	-364.7381286621094	106.5412902832032	-744.4284667968751	-448.6263427734376	50.46007919311525	-725.0611572265626	-239.1832427978516	54.40500640869142	-697.2448120117189	-245.9588775634766	59.31654357910158	-652.3163452148439	-301.6988525390626	31.39778518676759	-605.1677246093751	nan	nan	nan	
